<svg width="100" height="100" viewBox="0 0 100 100" fill="none" xmlns="http://www.w3.org/2000/svg">
<path d="M49.0948 61.3312H55.7351V52.5815H65.0315V46.3318H55.7351V37.5821H49.0948V46.3318H39.7983V52.5815H49.0948V61.3312ZM16.9999 78.8305V72.5807H25.8537V40.9153C25.8537 35.0822 27.6798 29.8567 31.3319 25.2389C34.9841 20.621 39.7983 17.7218 45.7746 16.5413V14.2497C45.7746 12.5137 46.4202 11.038 47.7114 9.82281C49.0025 8.60758 50.5704 7.99997 52.4149 7.99997C54.2594 7.99997 55.8273 8.60758 57.1185 9.82281C58.4096 11.038 59.0552 12.5137 59.0552 14.2497V16.5413C65.0315 17.7218 69.8457 20.621 73.4979 25.2389C77.1501 29.8567 78.9762 35.0822 78.9762 40.9153V72.5807H87.8299V78.8305H16.9999ZM52.4149 91.33C49.9801 91.33 47.8958 90.514 46.162 88.8821C44.4281 87.2503 43.5612 85.2885 43.5612 82.997H61.2687C61.2687 85.2885 60.4017 87.2503 58.6679 88.8821C56.934 90.514 54.8497 91.33 52.4149 91.33ZM32.494 72.5807H72.3359V40.9153C72.3359 35.7072 70.3991 31.2803 66.5256 27.6346C62.6521 23.9889 57.9485 22.1661 52.4149 22.1661C46.8813 22.1661 42.1778 23.9889 38.3043 27.6346C34.4307 31.2803 32.494 35.7072 32.494 40.9153V72.5807Z" fill="black"/>
</svg>
