<svg width="50" height="50" viewBox="0 0 50 50" fill="none" xmlns="http://www.w3.org/2000/svg">
<path d="M9.375 45.8333C8.54167 45.8333 7.8125 45.5208 7.1875 44.8958C6.5625 44.2708 6.25 43.5416 6.25 42.7083V10.4166C6.25 9.58329 6.5625 8.85413 7.1875 8.22913C7.8125 7.60413 8.54167 7.29163 9.375 7.29163H12.7604V4.16663H16.1458V7.29163H33.8542V4.16663H37.2396V7.29163H40.625C41.4583 7.29163 42.1875 7.60413 42.8125 8.22913C43.4375 8.85413 43.75 9.58329 43.75 10.4166V42.7083C43.75 43.5416 43.4375 44.2708 42.8125 44.8958C42.1875 45.5208 41.4583 45.8333 40.625 45.8333H9.375ZM9.375 42.7083H40.625V20.3125H9.375V42.7083ZM9.375 17.1875H40.625V10.4166H9.375V17.1875ZM25 29.1666C24.4097 29.1666 23.9149 28.967 23.5156 28.5677C23.1163 28.1684 22.9167 27.6736 22.9167 27.0833C22.9167 26.493 23.1163 25.9982 23.5156 25.5989C23.9149 25.1996 24.4097 25 25 25C25.5903 25 26.0851 25.1996 26.4844 25.5989C26.8837 25.9982 27.0833 26.493 27.0833 27.0833C27.0833 27.6736 26.8837 28.1684 26.4844 28.5677C26.0851 28.967 25.5903 29.1666 25 29.1666ZM16.6667 29.1666C16.0764 29.1666 15.5816 28.967 15.1823 28.5677C14.783 28.1684 14.5833 27.6736 14.5833 27.0833C14.5833 26.493 14.783 25.9982 15.1823 25.5989C15.5816 25.1996 16.0764 25 16.6667 25C17.2569 25 17.7517 25.1996 18.151 25.5989C18.5503 25.9982 18.75 26.493 18.75 27.0833C18.75 27.6736 18.5503 28.1684 18.151 28.5677C17.7517 28.967 17.2569 29.1666 16.6667 29.1666ZM33.3333 29.1666C32.7431 29.1666 32.2483 28.967 31.849 28.5677C31.4497 28.1684 31.25 27.6736 31.25 27.0833C31.25 26.493 31.4497 25.9982 31.849 25.5989C32.2483 25.1996 32.7431 25 33.3333 25C33.9236 25 34.4184 25.1996 34.8177 25.5989C35.217 25.9982 35.4167 26.493 35.4167 27.0833C35.4167 27.6736 35.217 28.1684 34.8177 28.5677C34.4184 28.967 33.9236 29.1666 33.3333 29.1666ZM25 37.5C24.4097 37.5 23.9149 37.3003 23.5156 36.901C23.1163 36.5017 22.9167 36.0069 22.9167 35.4166C22.9167 34.8263 23.1163 34.3316 23.5156 33.9323C23.9149 33.5329 24.4097 33.3333 25 33.3333C25.5903 33.3333 26.0851 33.5329 26.4844 33.9323C26.8837 34.3316 27.0833 34.8263 27.0833 35.4166C27.0833 36.0069 26.8837 36.5017 26.4844 36.901C26.0851 37.3003 25.5903 37.5 25 37.5ZM16.6667 37.5C16.0764 37.5 15.5816 37.3003 15.1823 36.901C14.783 36.5017 14.5833 36.0069 14.5833 35.4166C14.5833 34.8263 14.783 34.3316 15.1823 33.9323C15.5816 33.5329 16.0764 33.3333 16.6667 33.3333C17.2569 33.3333 17.7517 33.5329 18.151 33.9323C18.5503 34.3316 18.75 34.8263 18.75 35.4166C18.75 36.0069 18.5503 36.5017 18.151 36.901C17.7517 37.3003 17.2569 37.5 16.6667 37.5ZM33.3333 37.5C32.7431 37.5 32.2483 37.3003 31.849 36.901C31.4497 36.5017 31.25 36.0069 31.25 35.4166C31.25 34.8263 31.4497 34.3316 31.849 33.9323C32.2483 33.5329 32.7431 33.3333 33.3333 33.3333C33.9236 33.3333 34.4184 33.5329 34.8177 33.9323C35.217 34.3316 35.4167 34.8263 35.4167 35.4166C35.4167 36.0069 35.217 36.5017 34.8177 36.901C34.4184 37.3003 33.9236 37.5 33.3333 37.5Z" fill="#25555B"/>
</svg>
