<svg width="45" height="45" viewBox="0 0 45 45" fill="none" xmlns="http://www.w3.org/2000/svg">
<path d="M15.3188 31.35L22.3501 24.3187L29.3813 31.35L31.3501 29.3812L24.3188 22.35L31.3501 15.3187L29.3813 13.35L22.3501 20.3812L15.3188 13.35L13.3501 15.3187L20.3813 22.35L13.3501 29.3812L15.3188 31.35ZM22.3501 41.1C19.7876 41.1 17.3657 40.6078 15.0845 39.6234C12.8032 38.639 10.811 37.2953 9.10791 35.5922C7.40479 33.889 6.06104 31.8969 5.07666 29.6156C4.09229 27.3344 3.6001 24.9125 3.6001 22.35C3.6001 19.7562 4.09229 17.3187 5.07666 15.0375C6.06104 12.7562 7.40479 10.7719 9.10791 9.08435C10.811 7.39685 12.8032 6.06091 15.0845 5.07654C17.3657 4.09216 19.7876 3.59998 22.3501 3.59998C24.9438 3.59998 27.3813 4.09216 29.6626 5.07654C31.9438 6.06091 33.9282 7.39685 35.6157 9.08435C37.3032 10.7719 38.6392 12.7562 39.6235 15.0375C40.6079 17.3187 41.1001 19.7562 41.1001 22.35C41.1001 24.9125 40.6079 27.3344 39.6235 29.6156C38.6392 31.8969 37.3032 33.889 35.6157 35.5922C33.9282 37.2953 31.9438 38.639 29.6626 39.6234C27.3813 40.6078 24.9438 41.1 22.3501 41.1ZM22.3501 38.2875C26.7876 38.2875 30.5532 36.7328 33.647 33.6234C36.7407 30.514 38.2876 26.7562 38.2876 22.35C38.2876 17.9125 36.7407 14.1469 33.647 11.0531C30.5532 7.95935 26.7876 6.41248 22.3501 6.41248C17.9438 6.41248 14.186 7.95935 11.0767 11.0531C7.96729 14.1469 6.4126 17.9125 6.4126 22.35C6.4126 26.7562 7.96729 30.514 11.0767 33.6234C14.186 36.7328 17.9438 38.2875 22.3501 38.2875Z" fill="white"/>
</svg>
