<svg width="50" height="50" viewBox="0 0 50 50" fill="none" xmlns="http://www.w3.org/2000/svg">
<path d="M21.7604 34.3125L36.5 19.5729L34.1042 17.2292L21.7604 29.5729L15.5104 23.3229L13.1667 25.6667L21.7604 34.3125ZM24.8333 45.6667C21.9861 45.6667 19.2951 45.1198 16.7604 44.026C14.2257 42.9323 12.0122 41.4392 10.1198 39.5469C8.22743 37.6545 6.73438 35.441 5.64063 32.9063C4.54688 30.3715 4 27.6806 4 24.8333C4 21.9514 4.54688 19.2431 5.64063 16.7083C6.73438 14.1736 8.22743 11.9688 10.1198 10.0938C12.0122 8.21875 14.2257 6.73438 16.7604 5.64063C19.2951 4.54688 21.9861 4 24.8333 4C27.7153 4 30.4236 4.54688 32.9583 5.64063C35.4931 6.73438 37.6979 8.21875 39.5729 10.0938C41.4479 11.9688 42.9323 14.1736 44.026 16.7083C45.1198 19.2431 45.6667 21.9514 45.6667 24.8333C45.6667 27.6806 45.1198 30.3715 44.026 32.9063C42.9323 35.441 41.4479 37.6545 39.5729 39.5469C37.6979 41.4392 35.4931 42.9323 32.9583 44.026C30.4236 45.1198 27.7153 45.6667 24.8333 45.6667ZM24.8333 42.5417C29.7639 42.5417 33.9479 40.8142 37.3854 37.3594C40.8229 33.9045 42.5417 29.7292 42.5417 24.8333C42.5417 19.9028 40.8229 15.7188 37.3854 12.2813C33.9479 8.84375 29.7639 7.125 24.8333 7.125C19.9375 7.125 15.7622 8.84375 12.3073 12.2813C8.85243 15.7188 7.125 19.9028 7.125 24.8333C7.125 29.7292 8.85243 33.9045 12.3073 37.3594C15.7622 40.8142 19.9375 42.5417 24.8333 42.5417Z" fill="white"/>
</svg>
