<svg width="100" height="100" viewBox="0 0 100 100" fill="none" xmlns="http://www.w3.org/2000/svg">
<path d="M46.8542 70.5H53.1042V45.5H46.8542V70.5ZM49.6648 37.7917C50.6383 37.7917 51.4549 37.4722 52.1146 36.8333C52.7743 36.1944 53.1042 35.4028 53.1042 34.4583C53.1042 33.4549 52.7749 32.6137 52.1165 31.9349C51.4579 31.2561 50.6419 30.9167 49.6685 30.9167C48.6951 30.9167 47.8785 31.2561 47.2188 31.9349C46.559 32.6137 46.2292 33.4549 46.2292 34.4583C46.2292 35.4028 46.5584 36.1944 47.2169 36.8333C47.8754 37.4722 48.6914 37.7917 49.6648 37.7917ZM49.6944 91.3333C43.949 91.3333 38.5497 90.2396 33.4965 88.0521C28.4433 85.8646 24.0243 82.8785 20.2396 79.0938C16.4549 75.309 13.4688 70.8875 11.2813 65.8291C9.09375 60.7707 8 55.3659 8 49.6146C8 43.8633 9.09375 38.4584 11.2813 33.4001C13.4688 28.3417 16.4549 23.9375 20.2396 20.1875C24.0243 16.4375 28.4459 13.4688 33.5043 11.2813C38.5626 9.09375 43.9674 8 49.7188 8C55.4701 8 60.8749 9.09375 65.9332 11.2813C70.9916 13.4688 75.3958 16.4375 79.1458 20.1875C82.8958 23.9375 85.8646 28.3472 88.0521 33.4167C90.2396 38.4861 91.3333 43.8935 91.3333 49.639C91.3333 55.3844 90.2396 60.7837 88.0521 65.8369C85.8646 70.8901 82.8958 75.3026 79.1458 79.0746C75.3958 82.8465 70.9861 85.8326 65.9167 88.0329C60.8472 90.2332 55.4398 91.3333 49.6944 91.3333ZM49.7188 85.0833C59.5451 85.0833 67.8958 81.6285 74.7708 74.7188C81.6458 67.809 85.0833 59.441 85.0833 49.6146C85.0833 39.7882 81.6524 31.4375 74.7904 24.5625C67.9284 17.6875 59.5538 14.25 49.6667 14.25C39.875 14.25 31.5243 17.681 24.6146 24.5429C17.7049 31.4049 14.25 39.7795 14.25 49.6667C14.25 59.4583 17.7049 67.809 24.6146 74.7188C31.5243 81.6285 39.8924 85.0833 49.7188 85.0833Z" fill="white"/>
</svg>
