<svg width="340" height="340" viewBox="0 0 340 340" fill="none" xmlns="http://www.w3.org/2000/svg">
<circle cx="170" cy="170" r="170" fill="#04171E"/>
<rect x="116.545" y="57.5363" width="112.196" height="120.893" rx="17" fill="#04171E"/>
<path d="M106.108 161.355C106.108 168.646 109.33 175.192 114.37 179.749V194.497C114.37 199.054 118.088 202.782 122.633 202.782H130.895C135.44 202.782 139.158 199.054 139.158 194.497V186.211H205.258V194.497C205.258 199.054 208.976 202.782 213.52 202.782H221.783C226.327 202.782 230.045 199.054 230.045 194.497V179.749C235.085 175.192 238.308 168.646 238.308 161.355V78.5015C238.308 49.5027 208.728 45.36 172.208 45.36C135.687 45.36 106.108 49.5027 106.108 78.5015V161.355ZM135.026 169.641C128.169 169.641 122.633 164.09 122.633 157.213C122.633 150.336 128.169 144.785 135.026 144.785C141.884 144.785 147.42 150.336 147.42 157.213C147.42 164.09 141.884 169.641 135.026 169.641ZM209.389 169.641C202.531 169.641 196.995 164.09 196.995 157.213C196.995 150.336 202.531 144.785 209.389 144.785C216.247 144.785 221.783 150.336 221.783 157.213C221.783 164.09 216.247 169.641 209.389 169.641ZM221.783 119.928H122.633V78.5015H221.783V119.928Z" fill="#469199"/>
<ellipse cx="173.078" cy="111.025" rx="32.1802" ry="31.7454" fill="#04171E"/>
<path d="M214.825 79.9602L195.421 63.6244L189.979 70.0995L209.383 86.4353L214.825 79.9602ZM155.263 70.0995L149.864 63.6244L130.46 79.9179L135.902 86.393L155.263 70.0995ZM174.752 89.6094H168.424V115.002L188.461 127.063L191.624 121.858L174.752 111.828V89.6094ZM172.643 72.681C151.678 72.681 134.679 89.7363 134.679 110.77C134.679 131.803 151.636 148.859 172.643 148.859C193.607 148.859 210.606 131.803 210.606 110.77C210.606 89.7363 193.607 72.681 172.643 72.681ZM172.643 140.394C156.318 140.394 143.115 127.148 143.115 110.77C143.115 94.3916 156.318 81.1452 172.643 81.1452C188.967 81.1452 202.17 94.3916 202.17 110.77C202.17 127.148 188.967 140.394 172.643 140.394Z" fill="#D9D9D9"/>
<path d="M87.3096 232.817V268.364H80.0098V232.817H87.3096ZM98.2471 232.817V238.554H69.2432V232.817H98.2471ZM107.305 247.709V268.364H100.273V241.948H106.89L107.305 247.709ZM115.264 241.777L115.142 248.295C114.8 248.246 114.385 248.206 113.896 248.173C113.424 248.124 112.993 248.1 112.603 248.1C111.61 248.1 110.747 248.23 110.015 248.491C109.299 248.735 108.696 249.101 108.208 249.589C107.736 250.078 107.378 250.672 107.134 251.371C106.906 252.071 106.776 252.869 106.743 253.764L105.327 253.325C105.327 251.616 105.498 250.045 105.84 248.613C106.182 247.164 106.678 245.903 107.329 244.828C107.996 243.754 108.81 242.924 109.771 242.338C110.731 241.752 111.829 241.459 113.066 241.459C113.457 241.459 113.856 241.492 114.263 241.557C114.67 241.606 115.003 241.679 115.264 241.777ZM126.006 241.948V268.364H118.95V241.948H126.006ZM118.511 235.063C118.511 234.037 118.869 233.191 119.585 232.524C120.301 231.856 121.261 231.523 122.466 231.523C123.654 231.523 124.606 231.856 125.322 232.524C126.055 233.191 126.421 234.037 126.421 235.063C126.421 236.088 126.055 236.935 125.322 237.602C124.606 238.269 123.654 238.603 122.466 238.603C121.261 238.603 120.301 238.269 119.585 237.602C118.869 236.935 118.511 236.088 118.511 235.063ZM138.848 247.026V278.52H131.816V241.948H138.335L138.848 247.026ZM155.571 254.863V255.375C155.571 257.296 155.343 259.078 154.888 260.722C154.448 262.366 153.797 263.798 152.935 265.019C152.072 266.223 150.998 267.167 149.712 267.851C148.442 268.518 146.978 268.852 145.317 268.852C143.706 268.852 142.306 268.526 141.118 267.875C139.93 267.224 138.929 266.313 138.115 265.141C137.318 263.953 136.675 262.578 136.187 261.015C135.698 259.453 135.324 257.776 135.063 255.986V254.643C135.324 252.722 135.698 250.965 136.187 249.37C136.675 247.758 137.318 246.367 138.115 245.195C138.929 244.007 139.922 243.087 141.094 242.436C142.282 241.785 143.674 241.459 145.269 241.459C146.945 241.459 148.418 241.777 149.688 242.411C150.973 243.046 152.048 243.958 152.91 245.146C153.789 246.334 154.448 247.75 154.888 249.394C155.343 251.038 155.571 252.861 155.571 254.863ZM148.516 255.375V254.863C148.516 253.74 148.418 252.706 148.223 251.762C148.044 250.802 147.751 249.964 147.344 249.247C146.953 248.531 146.432 247.978 145.781 247.587C145.146 247.18 144.373 246.977 143.462 246.977C142.502 246.977 141.68 247.132 140.996 247.441C140.329 247.75 139.784 248.198 139.36 248.784C138.937 249.37 138.62 250.069 138.408 250.883C138.197 251.697 138.066 252.617 138.018 253.642V257.036C138.099 258.24 138.327 259.322 138.701 260.283C139.076 261.227 139.653 261.975 140.435 262.529C141.216 263.082 142.241 263.359 143.511 263.359C144.438 263.359 145.22 263.155 145.855 262.748C146.489 262.325 147.002 261.747 147.393 261.015C147.799 260.283 148.084 259.436 148.247 258.476C148.426 257.516 148.516 256.482 148.516 255.375ZM176.274 232.817V268.364H168.975V232.817H176.274ZM187.212 232.817V238.554H158.208V232.817H187.212ZM198.369 241.948V268.364H191.313V241.948H198.369ZM190.874 235.063C190.874 234.037 191.232 233.191 191.948 232.524C192.664 231.856 193.625 231.523 194.829 231.523C196.017 231.523 196.969 231.856 197.686 232.524C198.418 233.191 198.784 234.037 198.784 235.063C198.784 236.088 198.418 236.935 197.686 237.602C196.969 238.269 196.017 238.603 194.829 238.603C193.625 238.603 192.664 238.269 191.948 237.602C191.232 236.935 190.874 236.088 190.874 235.063ZM211.211 247.416V268.364H204.155V241.948H210.771L211.211 247.416ZM210.234 254.228H208.281C208.281 252.389 208.501 250.696 208.94 249.15C209.396 247.587 210.055 246.236 210.918 245.097C211.797 243.941 212.879 243.046 214.165 242.411C215.451 241.777 216.94 241.459 218.633 241.459C219.805 241.459 220.879 241.638 221.855 241.996C222.832 242.338 223.67 242.884 224.37 243.632C225.086 244.365 225.64 245.325 226.03 246.513C226.421 247.685 226.616 249.093 226.616 250.737V268.364H219.585V251.518C219.585 250.314 219.422 249.386 219.097 248.735C218.771 248.084 218.307 247.628 217.705 247.368C217.119 247.107 216.411 246.977 215.581 246.977C214.67 246.977 213.872 247.164 213.188 247.538C212.521 247.913 211.968 248.434 211.528 249.101C211.089 249.752 210.763 250.517 210.552 251.396C210.34 252.275 210.234 253.219 210.234 254.228ZM225.957 253.422L223.442 253.74C223.442 252.014 223.654 250.411 224.077 248.93C224.517 247.449 225.16 246.147 226.006 245.024C226.869 243.901 227.935 243.03 229.204 242.411C230.474 241.777 231.938 241.459 233.599 241.459C234.868 241.459 236.024 241.647 237.065 242.021C238.107 242.379 238.994 242.957 239.727 243.754C240.475 244.536 241.045 245.561 241.436 246.83C241.842 248.1 242.046 249.654 242.046 251.494V268.364H234.99V251.494C234.99 250.273 234.827 249.345 234.502 248.71C234.193 248.059 233.737 247.612 233.135 247.368C232.549 247.107 231.849 246.977 231.035 246.977C230.189 246.977 229.448 247.148 228.813 247.49C228.179 247.815 227.65 248.271 227.227 248.857C226.803 249.443 226.486 250.126 226.274 250.908C226.063 251.673 225.957 252.511 225.957 253.422ZM259.648 268.852C257.598 268.852 255.758 268.526 254.131 267.875C252.503 267.208 251.12 266.288 249.98 265.117C248.857 263.945 247.995 262.586 247.393 261.039C246.79 259.477 246.489 257.817 246.489 256.059V255.082C246.489 253.08 246.774 251.249 247.344 249.589C247.913 247.929 248.727 246.489 249.785 245.268C250.859 244.047 252.161 243.111 253.691 242.46C255.221 241.793 256.947 241.459 258.867 241.459C260.739 241.459 262.399 241.769 263.848 242.387C265.296 243.006 266.509 243.884 267.485 245.024C268.478 246.163 269.227 247.53 269.731 249.125C270.236 250.704 270.488 252.462 270.488 254.399V257.328H249.492V252.641H263.579V252.104C263.579 251.127 263.4 250.257 263.042 249.492C262.7 248.71 262.179 248.092 261.48 247.636C260.78 247.18 259.884 246.953 258.794 246.953C257.866 246.953 257.069 247.156 256.401 247.563C255.734 247.97 255.189 248.539 254.766 249.272C254.359 250.004 254.049 250.867 253.838 251.86C253.643 252.836 253.545 253.911 253.545 255.082V256.059C253.545 257.117 253.691 258.093 253.984 258.989C254.294 259.884 254.725 260.657 255.278 261.308C255.848 261.959 256.532 262.464 257.329 262.822C258.143 263.18 259.063 263.359 260.088 263.359C261.357 263.359 262.537 263.115 263.628 262.626C264.735 262.122 265.687 261.365 266.484 260.356L269.902 264.067C269.349 264.864 268.592 265.629 267.632 266.362C266.688 267.094 265.549 267.696 264.214 268.168C262.879 268.624 261.357 268.852 259.648 268.852Z" fill="white"/>
</svg>
