<svg width="68" height="68" viewBox="0 0 68 68" fill="none" xmlns="http://www.w3.org/2000/svg">
<path d="M26.9024 46.0416L45.8149 34L26.9024 21.9583V46.0416ZM33.7733 62.3333C29.9011 62.3333 26.2413 61.5895 22.7941 60.102C19.3469 58.6145 16.3365 56.584 13.7629 54.0104C11.1892 51.4368 9.15869 48.4263 7.67119 44.9791C6.18369 41.5319 5.43994 37.8722 5.43994 34C5.43994 30.0805 6.18369 26.3972 7.67119 22.95C9.15869 19.5027 11.1892 16.5041 13.7629 13.9541C16.3365 11.4041 19.3469 9.38538 22.7941 7.89788C26.2413 6.41038 29.9011 5.66663 33.7733 5.66663C37.6927 5.66663 41.3761 6.41038 44.8233 7.89788C48.2705 9.38538 51.2691 11.4041 53.8191 13.9541C56.3691 16.5041 58.3879 19.5027 59.8754 22.95C61.3629 26.3972 62.1066 30.0805 62.1066 34C62.1066 37.8722 61.3629 41.5319 59.8754 44.9791C58.3879 48.4263 56.3691 51.4368 53.8191 54.0104C51.2691 56.584 48.2705 58.6145 44.8233 60.102C41.3761 61.5895 37.6927 62.3333 33.7733 62.3333ZM33.7733 58.0833C40.4788 58.0833 46.1691 55.734 50.8441 51.0354C55.5191 46.3368 57.8566 40.6583 57.8566 34C57.8566 27.2944 55.5191 21.6041 50.8441 16.9291C46.1691 12.2541 40.4788 9.91663 33.7733 9.91663C27.1149 9.91663 21.4365 12.2541 16.7379 16.9291C12.0392 21.6041 9.68994 27.2944 9.68994 34C9.68994 40.6583 12.0392 46.3368 16.7379 51.0354C21.4365 55.734 27.1149 58.0833 33.7733 58.0833Z" fill="#25555B"/>
</svg>
