<svg width="50" height="50" viewBox="0 0 50 50" fill="none" xmlns="http://www.w3.org/2000/svg">
<path d="M32.4896 34.8854L34.8333 32.5417L26.5521 24.2083V13.7396H23.4271V25.4583L32.4896 34.8854ZM24.8333 45.6667C21.9861 45.6667 19.2951 45.1198 16.7604 44.026C14.2257 42.9323 12.0122 41.4392 10.1198 39.5469C8.22743 37.6545 6.73438 35.441 5.64063 32.9063C4.54688 30.3715 4 27.6806 4 24.8333C4 21.9861 4.54688 19.2951 5.64063 16.7604C6.73438 14.2257 8.22743 12.0122 10.1198 10.1198C12.0122 8.22743 14.2257 6.73438 16.7604 5.64063C19.2951 4.54688 21.9861 4 24.8333 4C27.6806 4 30.3715 4.54688 32.9063 5.64063C35.441 6.73438 37.6545 8.22743 39.5469 10.1198C41.4392 12.0122 42.9323 14.2257 44.026 16.7604C45.1198 19.2951 45.6667 21.9861 45.6667 24.8333C45.6667 27.6806 45.1198 30.3715 44.026 32.9063C42.9323 35.441 41.4392 37.6545 39.5469 39.5469C37.6545 41.4392 35.441 42.9323 32.9063 44.026C30.3715 45.1198 27.6806 45.6667 24.8333 45.6667ZM24.8333 42.5417C29.6944 42.5417 33.8611 40.8056 37.3333 37.3333C40.8056 33.8611 42.5417 29.6944 42.5417 24.8333C42.5417 19.9722 40.8056 15.8056 37.3333 12.3333C33.8611 8.86111 29.6944 7.125 24.8333 7.125C19.9722 7.125 15.8056 8.86111 12.3333 12.3333C8.86111 15.8056 7.125 19.9722 7.125 24.8333C7.125 29.6944 8.86111 33.8611 12.3333 37.3333C15.8056 40.8056 19.9722 42.5417 24.8333 42.5417Z" fill="#25555B"/>
</svg>
